With: Jamal Woolard, Derek Luke en Angela Bassett

NOTORIOUS is the story of Christopher Wallace. Through raw talent and sheer determination, Wallace transforms himself from Brooklyn street hustler (once selling crack to pregnant women) to one of the greatest rappers of all time; THE NOTORIOUS B.I.G. Follow his meteoric rise to fame and his refusal to succumb to expectations - redefining our notion of "The American Dream."

General:

Complete name                    : Klambake\Notorious\Notorious.avi
Format                           : AVI
Format/Info                      : Audio Video Interleave
File size                        : 1.96 GiB
Duration                         : 1h 57mn
Overall bit rate                 : 2396 Kbps

Video:

Format                           : MPEG-4 Visual
Format profile                   : Simple@L3
Format settings, BVOP            : No
Format settings, QPel            : No
Format settings, GMC             : No warppoints
Format settings, Matrix          : Default (H.263)
Codec ID                         : XVID
Codec ID/Hint                    : XviD
Duration                         : 1h 57mn
Bit rate                         : 1937 Kbps
Width                            : 720 pixels
Height                           : 400 pixels
Display aspect ratio             : 16:9
Frame rate                       : 25.000 fps
Color space                      : YUV
Chroma subsampling               : 4:2:0
Bit depth                        : 8 bits
Scan type                        : Progressive
Bits/(Pixel*Frame)               : 0.269
Stream size                      : 1.58 GiB (81%)
Writing library                  : XviD 1.1.2 (UTC 2006-11-01)

Audio:

Format                           : AC-3
Format/Info                      : Audio Coding 3
Mode extension                   : CM (complete main)
Codec ID                         : 2000
Duration                         : 1h 57mn
Bit rate mode                    : Constant
Bit rate                         : 448 Kbps
Channel(s)                       : 6 channels
Sampling rate                    : 48.0 KHz
Stream size                      : 375 MiB (19%)
Alignment                        : Aligned on interleaves
Interleave, duration             : 32 ms (0.80 video frame)
Interleave, preload duration     : 1344 ms